# xmcd
#
# Track frame offsets:
# 150
# 22305
# 41405
# 59567
# 75407
# 98080
# 113745
# 136885
# 163185
# 196677
# 218580
# 246380
# 276580
# 295300
# 316477
#
# Disc length: 4417 seconds
#
# Revision: 0
# Processed by: cddbd v1.5.1PL2 Copyright (c) Steve Scherf et al.
# Submitted via: MacMP3 Pro 5.0 (http://mp3.act2.co.jp/)
#
DISCID=dd113f0f
DTITLE=James Brown - I'm Back and Funks On Ah Roll
DYEAR=1900
DGENRE=
TTITLE0=Can't Stand It
TTITLE1=Funk On Ah Roll(S-Class Mix)
TTITLE2=Kare
TTITLE3=What It Talkes
TTITLE4=Papa's Got A Brand New Bag  
TTITLE5=Break Away
TTITLE6=Fund On Ah Roll(Original JB Mix)
TTITLE7=Lucky Old Sun
TTITLE8=I Don't Hear No Music
TTITLE9=Every Part Of My Heart(instrumental)
TTITLE10=Eden
TTITLE11=Peace In The World
TTITLE12=Funk On Ah Roll(S-Class Club Mix)
TTITLE13=James On The Loose
TTITLE14=Try
EXTD=
EXTT0=
EXTT1=
EXTT2=
EXTT3=
EXTT4=
EXTT5=
EXTT6=
EXTT7=
EXTT8=
EXTT9=
EXTT10=
EXTT11=
EXTT12=
EXTT13=
EXTT14=
PLAYORDER=
